 <svg  version="1.0" xmlns="http://www.w3.org/2000/svg"  width="300.000000pt" height="41.000000pt" viewBox="0 0 300.000000 41.000000"  preserveAspectRatio="xMidYMid meet">  <g transform="translate(0.000000,41.000000) scale(0.100000,-0.100000)" fill="#ffffff" stroke="none"> <path d="M29 366 c31 -32 40 -36 85 -36 95 0 153 -61 143 -149 -4 -36 -13 -52 -41 -78 -32 -30 -42 -33 -95 -33 -55 0 -61 -2 -85 -32 -25 -32 -25 -33 -5 -36 11 -2 29 4 38 12 22 20 85 22 78 2 -8 -19 67 -2 104 24 32 23 79 112 79 149 0 73 -49 155 -113 187 -17 9 -69 18 -126 21 l-96 6 34 -37z"/> <path d="M354 363 l-25 -33 119 0 c110 0 120 2 139 23 39 43 38 43 -88 44 l-119 0 -26 -34z"/> <path d="M598 343 c-252 -322 -267 -343 -248 -343 11 0 38 19 60 41 42 44 55 40 19 -5 -12 -15 -20 -29 -17 -31 4 -4 99 116 286 363 l24 32 -39 0 c-37 0 -44 -5 -85 -57z"/> <path d="M1053 384 c-3 -8 -3 -47 1 -85 l6 -69 -103 0 -103 0 -32 -33 c-31 -32 -32 -36 -32 -115 l0 -82 35 0 35 0 0 85 0 84 98 -1 98 -1 0 -81 -1 -81 33 -3 32 -3 0 200 0 201 -30 0 c-19 0 -33 -6 -37 -16z"/> <path d="M1320 381 c-88 -46 -126 -172 -80 -266 27 -56 90 -105 134 -105 l31 1 -40 21 c-79 41 -119 109 -112 189 3 27 11 57 18 67 22 30 94 92 106 92 6 0 15 5 18 10 10 17 -38 11 -75 -9z"/> <path d="M1473 376 c95 -65 123 -112 114 -192 -5 -45 -45 -117 -59 -108 -4 3 -8 1 -8 -5 0 -6 -17 -22 -37 -36 -35 -23 -36 -25 -13 -25 57 0 129 71 149 146 29 108 -57 244 -155 244 -27 0 -27 0 9 -24z"/> <path d="M1774 390 c-38 -15 -74 -68 -74 -110 0 -76 76 -128 170 -117 34 4 54 1 69 -10 29 -20 25 -64 -6 -78 -17 -7 -23 -18 -23 -42 0 -37 8 -40 55 -17 33 15 65 65 65 99 0 32 -33 86 -61 100 -17 9 -57 15 -103 15 -70 0 -77 2 -92 25 -15 23 -15 27 0 50 9 14 23 25 31 25 10 0 15 11 15 35 0 36 -8 41 -46 25z"/> <path d="M2010 363 l0 -33 68 0 67 0 -3 -165 -3 -165 35 0 36 0 0 165 0 165 65 0 65 0 0 33 0 32 -165 0 -165 0 0 -32z"/> <path d="M2422 363 l32 -33 102 0 102 0 -2 32 -2 31 -132 2 -132 1 32 -33z"/> <path d="M2700 393 c0 -3 8 -18 17 -34 17 -28 20 -29 94 -29 82 0 111 -13 123 -56 9 -28 -28 -74 -59 -74 -48 0 -47 -30 3 -118 45 -81 46 -82 85 -82 l39 0 -20 33 c-10 17 -29 50 -42 71 -19 31 -21 41 -10 44 25 9 60 54 62 81 5 80 -14 125 -65 152 -18 10 -227 21 -227 12z"/> <path d="M1397 321 c-35 -4 -62 -12 -67 -21 -11 -17 -11 -171 -1 -189 5 -7 37 -16 72 -21 54 -8 68 -6 94 8 30 18 30 19 32 110 1 59 -3 94 -10 100 -19 15 -58 19 -120 13z m113 -52 c0 -17 -8 -19 -85 -19 -81 0 -85 1 -85 23 0 21 3 22 85 19 76 -3 85 -5 85 -23z m-5 -64 c0 -18 -8 -20 -82 -23 -83 -3 -83 -3 -83 22 0 25 0 26 83 23 75 -2 82 -4 82 -22z m5 -64 c0 -18 -9 -20 -85 -23 -82 -3 -85 -2 -85 20 0 21 4 22 85 22 77 0 85 -2 85 -19z"/> <path d="M2390 195 l0 -36 132 3 133 3 2 33 3 32 -135 0 -135 0 0 -35z"/> <path d="M462 37 c-18 -26 -20 -33 -7 -35 8 -2 25 4 37 12 31 22 146 22 154 1 9 -23 31 -18 53 14 12 16 21 32 21 35 0 3 -53 6 -117 6 l-118 0 -23 -33z"/> <path d="M2420 35 l-35 -35 28 0 c16 0 35 7 44 15 20 20 160 18 156 -3 -2 -6 5 -12 16 -12 12 0 20 9 24 27 3 16 3 31 0 35 -2 5 -48 8 -101 7 -97 0 -97 0 -132 -34z"/> </g> </svg> 